<?xml version="1.0" encoding="utf-8"?>
<!-- Generator: Adobe Illustrator 19.2.1, SVG Export Plug-In . SVG Version: 6.00 Build 0)  -->
<svg version="1.1" id="Layer_1" xmlns="http://www.w3.org/2000/svg" xmlns:xlink="http://www.w3.org/1999/xlink" x="0px" y="0px"
	 viewBox="0 0 2580 3022.5" style="enable-background:new 0 0 2580 3022.5;" xml:space="preserve">
<style type="text/css">
	.st0{fill:#FFFFFF;}
	.st1{fill:#FFD200;}
	.st2{fill:#FF8800;}
	.st3{fill:#3C3C3C;}
	.st4{fill:#00709C;}
	.st5{display:none;}
	.st6{display:inline;}
	.st7{display:inline;fill:#FFD200;}
	.st8{display:inline;fill:#FF8800;}
	.st9{display:inline;fill:#3C3C3C;}
	.st10{display:inline;fill:#FFFFFF;}
	.st11{display:inline;fill:#00709C;}
</style>
<path class="st0" d="M1157.5,3022.5c-83.8,0-169.1-17-253.5-50.5c-68.9-27.4-135.4-65.8-187.2-108.2c-42.6-34.8-76-71.8-99.3-110.1
	c-25-41.1-37.1-81.5-35.9-120c1.5-44.9,14.6-85.5,38-117.4c24.1-32.9,58.5-55.9,99.3-66.4c16.4-4.2,33.6-6.4,51.3-6.4
	c43.6,0,91.1,13.8,133.7,38.7c50.6,29.6,93.2,73.2,126.7,129.6c14.7,24.6,35.6,43.7,62.3,56.6c28.4,13.7,63.3,20.7,103.8,20.7
	c1.9,0,3.8,0,5.7,0c133-2.5,286.7-74.9,404.5-186.2c-25.9,2.2-46.6,3.4-56.1,3.8l-2.4,0.1c-39.7,40-102.6,78.4-173.5,78.4
	c-55.4,0-106.5-25.9-140.3-71c-3.5-4.7-6.8-9.6-9.8-14.7c-65.7-5.8-130.8-20.1-193.9-42.7c-55.5-19.8-108.4-45.6-157.8-76.9
	c-25,33.2-64.5,52-109.6,52c-15.1,0-31.3-2-48.1-6.1c-73.7-17.7-162.3-76.2-243.1-160.6c-77.1-80.4-131.2-167.7-144.8-233.5
	c-12.1-58.7-3.7-114.6,23.6-160.1L5.4,1107.1c-9.7-21.4-6.1-46.7,9.2-64.6c2-2.4,4.2-4.5,6.5-6.5c-3.2-15.5-0.2-31.8,8.7-45.5
	C41,973.3,60,963,80.6,963c0.5,0,0.6,0,37.9,0.9c1.7-7.4,4.7-14.5,9.1-21c11.3-16.5,30.1-26.4,50.2-26.4c6.7,0,13.2,1.1,19.5,3.2
	l140.4,47.7c6.5,2.2,128.5,44.1,262.6,120.4c-5.8-32.8,4.7-66.8,29.2-90.8c14.1-13.9,32.1-23.5,51.9-27.9
	c9.3-2.3,53.8-22.9,103.9-57.7c10.5-7.3,22.1-12.5,34.3-15.5c2.7-4.6,5.4-9.2,8.3-13.7c19.4-30.7,41.3-60.2,65.5-88
	c-3.4-7.3-5.9-15-7.4-22.9c-1.9-9.9-3.2-20.2-3.7-31c-54.6-42.6-337.2-263.2-360.7-284.1c-38.8-34.5-42.7-82.1-29.2-114
	c7.5-17.8,23.2-31.1,42-35.5L1817.5,1.6c4.6-1.1,9.4-1.6,14.1-1.6c21.9,0,42.1,11.8,52.9,30.9c3.7,6.6,7.7,13.6,12.1,21.1
	c3.5-0.3,7-0.5,10.5-0.5c23.9,0,46.3,6.5,66.4,19.3c16.8,10.7,32.1,25.9,45.5,45.3c24.3,34.9,40,79.4,50.9,114.2
	c18,57.3,29.2,113.1,30.1,117.8c2.1,9.1,18.8,37,26.8,50.4l0.1,0.2c10,16.7,19.4,32.5,27.4,49.3c25.2,52.7,55.4,122.1,87.8,202.1
	c3.5-0.1,10.6-0.3,10.6-0.3c35.1-1,71.3-2,107.5-2c48.7,0,89.2,1.8,127.4,5.7c52.5,5.3,92.1,49.1,92.1,101.9
	c0,44.8-13.6,87-40.5,125.6c-25.6,36.8-62.4,68.6-109.2,94.5c-17.7,9.8-36.5,18.6-56.2,26.3c23.3,68.6,41,125.8,51.5,167.1
	c12.5,49,11.2,88.9-4.1,121.9c-14.5,31.3-38.8,51.5-61,67.8c4.8,19.5,10.3,42.1,10.3,42.1c6.5,26.6,13.2,54.1,19.8,81.2
	c15.7,63.8,29.4,123,42,181.1c15.3,70.6,27.9,134.9,38.5,196.6c12.3,71.8,21.2,135.4,27,194.3c6.8,68.4,9.1,124.1,7.2,175.5
	c-1.3,35-20.3,66.5-51,84.3c-59.6,34.6-267.3,148.9-487.3,199.8l-5.5,9.1c-70.1,115.3-169.8,221.3-288.2,306.5
	c-118.3,85.1-251.8,146.9-386,178.7C1245.8,3017.5,1202.1,3022.5,1157.5,3022.5z"/>
<path d="M2540,755.3c0-32.2-24.1-58.9-56.2-62.1c-36.8-3.7-76-5.5-123.3-5.5c-35.7,0-71.7,1-106.6,2c-12.7,0.4-25.5,0.7-38.3,1
	c-36.2-90.2-69.7-167.9-97.2-225.5c-7.2-15.1-16.2-30.1-25.8-46.2c-12.7-21.3-28.6-47.8-31.7-63c-0.5-2.3-11.3-57.2-29.1-113.7
	c-23.4-74.6-56.6-150.8-124.7-150.8c-8,0-18.7,1.3-30.3,6c-10.5-18-19.4-33.4-27.1-46.9c-3.8-6.6-10.7-10.6-18.1-10.6
	c-1.6,0-3.2,0.2-4.8,0.6L543.6,345.6c-6.5,1.5-11.8,6.1-14.4,12.2c-5.9,14-8.5,44.1,19,68.5C572.1,447.6,902,705,916.1,715.9
	c1.9,1.4,3.9,2.6,6.1,3.3c-0.5,16,0.5,30.8,3.2,44.4c2.6,13.2,9.4,25.1,19.1,34c-31.2,32.7-58.9,68.2-82.7,105.9
	c-6,9.6-11.7,19.4-16.9,29.5c-0.4,0-0.7,0-1.1,0c-12.8,0-25.1,3.9-35.6,11.2c-52,36.1-101.9,60.3-118,63.9
	c-12.6,2.8-23.9,8.8-32.7,17.4c-18.2,17.8-23.7,44.6-14.1,68.2c2.8,6.9,6.8,13.2,11.5,18.3c4.8,5.5,10.6,10.6,17,14.9
	c11.1,7.5,29.7,16.2,58.5,19.4c-14.5,10.6-28,23-39.4,36.8c-1.5,1.8-3.2,3.9-5,6.3c-164.1-116.5-353.1-181.4-361.3-184.2
	l-140.4-47.7c-2.2-0.7-4.5-1.1-6.7-1.1c-6.7,0-13.2,3.3-17.2,9c-5.3,7.7-4.8,18,1.2,25.1l13.3,15.9c-15.3-1.6-25-1.9-26.9-1.9
	c0,0-67.4-1.6-67.6-1.6c-7,0-13.6,3.5-17.4,9.4c-3.9,6-4.5,13.7-1.5,20.2l15,32.2l-10.5-2.9c-1.8-0.5-3.7-0.7-5.5-0.7
	c-6,0-11.8,2.6-15.8,7.3c-5.2,6.1-6.5,14.7-3.1,22.1l355.1,785c-31.1,39.3-41.8,91.7-30.2,147.9c25,120.6,214.4,328.9,358.1,363.3
	c13.8,3.3,26.8,5,38.8,5c34.9,0,63.7-14.5,81-40.9c5.8-8.9,10.2-18.9,13.2-29.9c114.5,82.7,252.4,132,392.6,140.1
	c4.4,10.7,9.8,20.4,16.2,29c26.1,34.9,65.6,54.9,108.3,54.9c61.8,0,121-37.8,155.3-77.6l18.7-0.9c21.2-1,88.9-4.9,150.4-15.8
	c0.6,2.9,1.5,5.7,2.6,8.5c-128.9,158.5-327.7,266.4-498.7,269.7c-2.1,0-4.3,0.1-6.4,0.1c-93.5,0-162.8-33.5-200.5-96.8
	c-65.2-109.7-159.5-148.7-226-148.7c-14.3,0-28.3,1.7-41.4,5.1C664.1,2505.2,624,2560,621.6,2635c-2,61.5,41.9,133.6,120.5,197.8
	c88.6,72.4,244.2,149.7,415.4,149.7c41.5,0,82.1-4.6,120.6-13.7c263.2-62.3,512-241.2,649.2-467l14.4-23.7
	c220.3-47.5,432.2-164.1,492.6-199.1c18.7-10.8,30.3-30,31.1-51.2c1.8-49.5-0.4-103.5-7-170.1c-5.7-58-14.5-120.7-26.6-191.5
	c-10.5-61.1-23-124.9-38.2-195c-12.5-57.8-26.2-116.6-41.8-180c-6.7-27.2-13.3-54.3-19.9-81.5c0,0-13.9-57-16.8-68.6
	c5.4-3.1,10.7-6.6,15.9-10.4c0.2-0.2,3.6-2.9,3.6-2.9c43.1-31.5,74.3-62.7,52.2-149.1c-12.2-47.8-34.1-117.3-63.6-201.8
	c31.2-9.3,61.1-21.8,87.6-36.5C2494.1,894.2,2540,828.5,2540,755.3z"/>
<path d="M1932.7,682.9c-8.3,0-16.4,0.1-24.4,0.4c-5.1-9.7-12.7-18-22.1-23.9c-9.2-5.7-18.6-11.3-28.4-16.7c1.9-3.5,3.5-7.2,4.8-11
	c11.4-33.3,1.5-73.9-33.2-133.2c22.7-6.4,43.9-12.5,63.3-18.2l1.5,6.4c16.1,69.1,31.8,135,47,196.2
	C1938.2,682.9,1935.4,682.9,1932.7,682.9z"/>
<path class="st1" d="M1231.9,1139.1c-23.4,20.5-38.7,39.8-48.4,57.4c-80.8,24.1-148.4,50.6-203.4,75.8c-6.4-39.6-18-70.1-31-93.3
	c58.4-8.3,175.1-56.1,229.5-131.1c42.1,21.9,88.9,33.6,139.7,34.9c-1.5,0.6-2.4,1-2.4,1c0.6-0.3,1.3-0.7,1.9-1
	C1285.1,1098.8,1256.2,1117.7,1231.9,1139.1z"/>
<path class="st1" d="M1087.7,2295l-15-20.2c-29.5-39.6-61.5-66.2-83.6-69.5c-1.7-0.3-3.4-0.4-5-0.4c-5.3,0-10.1,1.3-14.6,4.1
	l-21.8,13.4l-161.9-99.1c18.3,35.5,32.5,65.2,39.5,81c1.5,3.5,3.3,8.2,5.1,13.6c113.7,105.4,262.9,172.5,427.6,181
	c-1.8-24.4-0.2-49.3,1.2-71.5c0.6-10.2,1.3-20.1,1.4-27.8c0.2-10.8,0-21.3-0.3-31.7L1087.7,2295z"/>
<path class="st2" d="M1766.6,2478c-136.5,180-362.6,309.6-562.4,313.4c-119.2,2-211.5-42.9-261.6-127.2
	c-56.3-94.6-142.2-129.5-198.1-115.1c-37.5,9.7-58.9,40.9-60.5,88c-1.3,41.3,35.1,96.4,97.6,147.4
	c112.3,91.7,304.9,165.5,482.1,123.5c252.9-59.8,484.4-231.6,610.3-438.7C1837.9,2474.6,1801.9,2477.8,1766.6,2478z"/>
<path id="Fill-6_2_" class="st1" d="M1527.7,2127.5c-19.5-76.5-146.6-323.1-245.4-205.9
	c-50.8,60.3-8.5,167.5,5.8,233.4c10.6,48.9,14.8,95.2,14.1,145.1c-0.6,41.8-13.1,114.6,14.5,151.4c45.8,61.2,141.1,12.7,175.1-37.4
	C1545.7,2334.6,1549.6,2216.2,1527.7,2127.5"/>
<path id="Fill-8_2_" class="st1" d="M446.6,1913.4c-20,24.6-26.7,59.2-18.8,97.5
	c20.2,97.7,193.9,287.1,311.5,315.3c9,2.2,17.1,3.3,24.2,3.3c18.3,0,25.2-7.2,28.7-12.6c14.3-21.9,6.2-69.6-5.2-95.6
	c-32.6-74.4-135.8-269.5-187.9-309.6c-26.3-20.2-54.5-30.9-81.8-30.9C488.9,1880.8,463.8,1892.4,446.6,1913.4"/>
<path class="st3" d="M2264.4,1390.8c-50.4,46.4-212.3,195.2-280.2,251.6c-72.5,65.3-140.2,105.1-200.6,130.8
	c-18.8,299.5-23.3,582-23.3,663c0.8,0,1.6,0,2.5,0c256.4,0,563.5-166.9,640.2-211.4C2410.6,2012.7,2332.9,1653.4,2264.4,1390.8z"/>
<path class="st1" d="M1555.3,2079.9c6.1,15.4,10.4,28.3,12.7,37.3c19.2,77.6,23,194.3-22,287c49.7-2.4,121.5-8.8,173.1-21.3
	c1.2-93.8,5-267.3,14.7-462.7C1675.1,1940.9,1599.7,1995.4,1555.3,2079.9z"/>
<path class="st0" d="M1173.2,1274c-2.7-8.4-4.4-18.3-4-29.5c-234.3,74.1-346.1,167.1-346.1,167.1
	c-139.4-218.5-518.3-347.2-518.3-347.2l56.1,67.1c-99.2-61.7-214.2-64.4-214.2-64.4l20.8,44.5c120,36.2,339.1,129.5,590.3,365.1
	l53.4-40.4l76.1,66.3c61.3-36.2,190.2-106.7,349.8-163.8C1205.4,1324.6,1182,1301.7,1173.2,1274z"/>
<path class="st1" d="M1352.9,1137.9l-15.2-18.3c-29.2,14-55.7,31-78.3,50.8c-38,33.5-54.6,65.8-46.5,91c8.3,25.9,42,46.3,84,50.7
	c31.6,3.3,79.6-7.3,130.4-18.6c3.7-0.8,7.5-1.7,11.2-2.5C1398.8,1194.3,1353.8,1139,1352.9,1137.9z"/>
<path class="st3" d="M2251.2,1346.4c0,0-63.4-307.8-137.4-355.2c-116.4-74.5-272.5,103.6-272.5,103.6s-92.1-32.2-228.5-24.8
	c-107.9,5.9-232.7,33.8-232.7,33.8s218.9,262.7,144.4,653.9c0,0,183.2,77.7,432.3-147.2C2035.7,1545.3,2251.2,1346.4,2251.2,1346.4z
	"/>
<path id="Fill-7_2_" class="st2" d="M2152.5,754.1c-90.7,0-187.4-14-277.3-6.5
	c56.3,92,205.8,170.2,310,183.7c93.6,12.1,292.4-54.9,292.4-175.9C2370.8,744.5,2259.6,754.1,2152.5,754.1"/>
<path id="Fill-11_2_" class="st2" d="M703.7,1069.1c-1.9,0.4-2.4,1-2.4,1c0.2-0.1,1.4,2.2,5.8,5.1
	c8,5.4,40.8,20.7,129.6-3c-2.7-20.6-1.7-46.2,7.2-76.7C792,1031.6,733.5,1062.5,703.7,1069.1"/>
<path class="st1" d="M796.4,1311c12.2-5.5,24-13.7,34.5-24.1c22.3-22.3,32.3-51.7,26.7-78.7c-3.4-16.8-12.6-29.6-24.5-34.3
	c-1.9-0.8-4.6-1.2-7.7-1.2c-21.4,0-60.4,19.2-86.2,50.3c-4.4,5.3-10,13-14.3,22C750.3,1265.7,774.4,1287.7,796.4,1311z"/>
<path class="st3" d="M878.7,1157.5c9.5,11.5,16.4,26,19.8,42.3c8.4,40.7-5.9,84.3-38.1,116.5c-10.6,10.6-22.8,19.8-35.6,26.9
	c2.7,3.3,5.4,6.6,8,9.9c23.9-16,59.8-37.9,108-62C930.7,1208.7,895.1,1170.9,878.7,1157.5z"/>
<path class="st4" d="M1608.4,1812.2C1608.3,1812.2,1608.3,1812.2,1608.4,1812.2c-59.9,0-96.1-14.5-100-16.2
	c-4.9-2.1-9.1-4.8-12.7-8.3c-0.1,0.2-0.2,0.4-0.2,0.4c-76.9-75.5-131.1-340.5-148.7-436.7c-7.8,1-15.4,1.9-22.7,2.4
	c-209.9,64.8-377.7,162.3-415.4,184.6l219,708.3l129.7-20.3c-2.2-20.9-5.5-41.5-10-62.5c-2.3-10.7-5.6-23.3-9-36.4
	c-18.4-70.2-43.6-166.5,12.1-232.6c32-37.9,66.2-45.9,89.2-45.9c83.3,0,153.9,101.8,194.2,183.1c52.7-88.7,129.1-131,186-151
	l16.1-5.7c1.5-27.9,3.1-56.5,4.8-84.9C1689.3,1807.3,1644.4,1812.2,1608.4,1812.2z"/>
<path class="st0" d="M1202.9,1674.4c15.4,52.1,59,88.1,109.1,96.5l-113.6-153.4C1196,1636,1197.3,1655.3,1202.9,1674.4z"/>
<path class="st0" d="M1349.1,1562.8c0,0-6.9,2.9-14.7,5.7l89.3,127.4l0.1-40.6c-10.3-28.5-19.8-59-28.4-89.5
	c-8.1-7.3-15-14-17.8-23.2c-2.5-8.3-0.4-17.4,5.3-23.6c-1.1-4.3-2.2-8.5-3.2-12.8c-26.2-9.2-55.5-10.7-84.2-2.2
	c-46,13.6-79.4,49.1-92.4,91.8c3.1-0.8,6-1.6,8.5-2.3c13.8-4.1,34.6-12,34.6-12c7-2.5,10.9,7.7,4,10.6c0,0-6.9,2.9-14.7,5.7
	l90,128.3l3.3-94.9l-37.1-50.1c-7.2,1.7-14.2,2.8-14.2,2.8c-7.2,1.7-9.6-9.4-2.4-11.1c0,0,22.2-4.7,35.1-8.6
	c13.8-4.1,34.6-12,34.6-12C1352,1549.7,1355.9,1559.8,1349.1,1562.8z"/>
<path class="st0" d="M1340.2,1646.3l-5.6,126.4c12.8,0,25.8-1.8,38.7-5.6c15.3-4.5,29.2-11.5,41.5-20.4c-0.5-0.5-1-1-1.5-1.5
	L1340.2,1646.3z"/>
<path class="st0" d="M1379.8,1788.9c32.3-9.5,59.3-28.5,79-52.9c-1.3-2.3-2.5-4.7-3.7-7.1c-18.9,24.5-45.4,43.6-77.3,53
	c-80.7,23.8-165.7-22.4-189.6-103.1c-23.8-80.7,22.4-165.7,103.1-189.6c28.5-8.4,57.6-8.1,84.3-0.5c-0.6-2.7-1.3-5.4-1.9-8.1
	c-26.9-6.8-55.9-6.8-84.5,1.6c-84.6,25-133,114.1-108,198.7C1206.1,1765.4,1295.2,1813.9,1379.8,1788.9z"/>
<path class="st3" d="M1194.3,722.3c30.1-0.8,411.9-177.1,603.3-104.1c0,0,54-12.4-137.7-247.2c0,0-330.5-83.6-553.6,59.9
	c0,0-141.6,209-119.7,320.8C1085.2,668.6,1164.2,723.1,1194.3,722.3z"/>
<path class="st1" d="M2326.3,1194.2c-13.8-53.9-39.7-134.2-71.4-223.4c-15.9,2.3-31.5,3.4-46.3,3.4c0,0,0,0,0,0
	c-10.2,0-19.9-0.6-28.9-1.7c-9.3-1.2-18.9-2.9-28.8-5c24.9,22.9,58.8,73.7,99.1,206.9c13,42.8,23.5,83.8,30.7,114
	c4.4-2.3,8.9-5,13.4-8.3C2328.2,1255.2,2340.2,1248.6,2326.3,1194.2z"/>
<path class="st3" d="M2092.4,558.3c-10.6-23.9-20.8-46.2-30.3-66.2c-8.1-16.8-20.3-36.2-32-56c-37.5-7.3-64.7,15.7-76.8,29
	c5.2,22.5,16,69.1,30.5,129.2C2026.7,551.6,2073.1,554.6,2092.4,558.3z"/>
<g>
	<path class="st1" d="M1950.6,453.9c0.6,2.5,1.5,6.3,2.6,11.1c12.2-13.3,39.3-36.2,76.8-29c-13.5-23-26.1-46.7-30.5-68
		c0,0-50.6-257.1-107.2-207.9c0,0,71.1,108.4,75.1,198C1967.5,358.2,1937.7,399.5,1950.6,453.9z"/>
	<path class="st1" d="M2092.4,558.3c-19.2-3.7-65.7-6.7-108.6,36c8.1,33.7,17.4,71.7,27.5,112c11.7,0.6,23.3,1.3,34.7,2
		c37.1,2.2,72.1,4.3,106.5,4.3c1.5,0,3.1,0,4.6,0C2134.9,657.2,2112.8,604.6,2092.4,558.3z"/>
</g>
<g>
	<path class="st4" d="M720.8,1499.2c-258.8-239.9-480.4-324.7-585.6-353.6l320.3,708.1c18.6-9.5,39.5-14.6,61.9-14.6
		c36.5,0,73.6,13.7,107.2,39.5c34.5,26.6,81.6,100.2,122,172.1l169.1,103.4L720.8,1499.2z"/>
	<path class="st4" d="M865.1,1538.5l-55.8-48.5l-39.1,29.5l192.6,647.2c10.1-3.2,21-4.2,32.3-2.5c28.6,4.2,56.1,25.1,78,47.2
		L865.1,1538.5z"/>
</g>
<path class="st0" d="M1436.2,1687.3l-1.9,42.4c4.9-5.2,9.2-10.7,13.2-16.5C1443.6,1704.9,1439.8,1696.2,1436.2,1687.3z"/>
<path class="st1" d="M1839.6,769.3c-7.5-12.3-8.2-27.7-1.6-40.6c3.5-6.9,8.8-12.5,15.1-16.4c-51-31.9-106.3-55.4-165.2-70.2
	c-0.9,0-1.8,0-2.7,0c-141.5,0-326.9,67.2-416,99.5c-48,17.4-61.1,22-73.6,22.3l-1.8,0c-12.5,0-24.3-3.3-38-7.2
	c-15.9-4.5-33.9-9.6-54.1-9.6c-0.1,0-0.2,0-0.3,0c-75.1,49.8-138.6,113.7-186.6,189.8c-12.8,20.4-22.6,40-29.2,58.8
	c0,3.9-0.5,7.7-1.6,11.6c-6.3,21.5-8.3,41.6-5.9,59.6c0.5,3.6,0.4,7.2,0,10.7c0.5,2,1,4.1,1.6,6.1c8.9,29.2,29.3,47.3,44.1,53.8
	c25,11.1,184.1-44.1,230.3-128.1c2.6-4.7,7.1-8.2,12.3-9.6c5.3-1.4,10.8-0.6,15.5,2.3c108.5,66.7,230.5,36.2,336.3,2.4
	c10.5-3.3,21.6,2.4,25,12.9c1.8,5.6,0.9,11.4-1.9,16.1c5.5-0.1,11.1-0.1,16.6-0.1c17.5-2.2,35.3-3.8,52.8-4.8
	c14.3-0.8,28.8-1.2,43.1-1.2c80,0,141.8,12.2,174.8,20.6c37.3-37.4,123.2-112.4,214.9-116.3C1961.4,894.7,1881.1,837,1839.6,769.3z
	 M1003.7,961.6c-21.9,0-39.7-17.8-39.7-39.7c0-21.9,17.8-39.7,39.7-39.7c21.9,0,39.7,17.8,39.7,39.7
	C1043.4,943.8,1025.6,961.6,1003.7,961.6z M1219.8,943.9c-32.5,24.4-35.3,22-70.6,17.6c-35.3-4.4-44.8-33.6-13.2-57.3
	c17.6-13.2,44.1-22,83.8-26.4C1259.5,873.4,1255.1,917.5,1219.8,943.9z M1462.3,851.4c-21.9,0-39.7-17.8-39.7-39.7
	s17.8-39.7,39.7-39.7c21.9,0,39.7,17.8,39.7,39.7S1484.3,851.4,1462.3,851.4z"/>
<g class="st5">
	<path class="st6" d="M2540,755.3c0-32.2-24.1-58.9-56.2-62.1c-36.8-3.7-76-5.5-123.3-5.5c-35.7,0-71.7,1-106.6,2
		c-12.7,0.4-25.5,0.7-38.3,1c-36.2-90.2-69.7-167.9-97.2-225.5c-7.2-15.1-16.2-30.1-25.8-46.2c-12.7-21.3-28.6-47.8-31.7-63
		c-0.5-2.3-11.3-57.2-29.1-113.7c-23.4-74.6-56.6-150.8-124.7-150.8c-8,0-18.7,1.3-30.3,6c-10.5-18-19.4-33.4-27.1-46.9
		c-3.8-6.6-10.7-10.6-18.1-10.6c-1.6,0-3.2,0.2-4.8,0.6L543.6,345.6c-6.5,1.5-11.8,6.1-14.4,12.2c-5.9,14-8.5,44.1,19,68.5
		C572.1,447.6,902,705,916.1,715.9c1.9,1.4,3.9,2.6,6.1,3.3c-0.5,16,0.5,30.8,3.2,44.4c2.6,13.2,9.4,25.1,19.1,34
		c-31.2,32.7-58.9,68.2-82.7,105.9c-6,9.6-11.7,19.4-16.9,29.5c-0.4,0-0.7,0-1.1,0c-12.8,0-25.1,3.9-35.6,11.2
		c-52,36.1-101.9,60.3-118,63.9c-12.6,2.8-23.9,8.8-32.7,17.4c-18.2,17.8-23.7,44.6-14.1,68.2c2.8,6.9,6.8,13.2,11.5,18.3
		c4.8,5.5,10.6,10.6,17,14.9c11.1,7.5,29.7,16.2,58.5,19.4c-14.5,10.6-28,23-39.4,36.8c-1.5,1.8-3.2,3.9-5,6.3
		c-164.1-116.5-353.1-181.4-361.3-184.2l-140.4-47.7c-2.2-0.7-4.5-1.1-6.7-1.1c-6.7,0-13.2,3.3-17.2,9c-5.3,7.7-4.8,18,1.2,25.1
		l13.3,15.9c-15.3-1.6-25-1.9-26.9-1.9c0,0-67.4-1.6-67.6-1.6c-7,0-13.6,3.5-17.4,9.4c-3.9,6-4.5,13.7-1.5,20.2l15,32.2l-10.5-2.9
		c-1.8-0.5-3.7-0.7-5.5-0.7c-6,0-11.8,2.6-15.8,7.3c-5.2,6.1-6.5,14.7-3.1,22.1l355.1,785c-31.1,39.3-41.8,91.7-30.2,147.9
		c25,120.6,214.4,328.9,358.1,363.3c13.8,3.3,26.8,5,38.8,5c34.9,0,63.7-14.5,81-40.9c5.8-8.9,10.2-18.9,13.2-29.9
		c114.5,82.7,252.4,132,392.6,140.1c4.4,10.7,9.8,20.4,16.2,29c26.1,34.9,65.6,54.9,108.3,54.9c61.8,0,121-37.8,155.3-77.6l18.7-0.9
		c21.2-1,88.9-4.9,150.4-15.8c0.6,2.9,1.5,5.7,2.6,8.5c-128.9,158.5-327.7,266.4-498.7,269.7c-2.1,0-4.3,0.1-6.4,0.1
		c-93.5,0-162.8-33.5-200.5-96.8c-65.2-109.7-159.5-148.7-226-148.7c-14.3,0-28.3,1.7-41.4,5.1C664.1,2505.2,624,2560,621.6,2635
		c-2,61.5,41.9,133.6,120.5,197.8c88.6,72.4,244.2,149.7,415.4,149.7c41.5,0,82.1-4.6,120.6-13.7c263.2-62.3,512-241.2,649.2-467
		l14.4-23.7c220.3-47.5,432.2-164.1,492.6-199.1c18.7-10.8,30.3-30,31.1-51.2c1.8-49.5-0.4-103.5-7-170.1
		c-5.7-58-14.5-120.7-26.6-191.5c-10.5-61.1-23-124.9-38.2-195c-12.5-57.8-26.2-116.6-41.8-180c-6.7-27.2-13.3-54.3-19.9-81.5
		c0,0-13.9-57-16.8-68.6c5.4-3.1,10.7-6.6,15.9-10.4c0.2-0.2,3.6-2.9,3.6-2.9c43.1-31.5,74.3-62.7,52.2-149.1
		c-12.2-47.8-34.1-117.3-63.6-201.8c31.2-9.3,61.1-21.8,87.6-36.5C2494.1,894.2,2540,828.5,2540,755.3z M1932.7,682.9
		c-8.3,0-16.4,0.1-24.4,0.4c-5.1-9.7-12.7-18-22.1-23.9c-9.2-5.7-18.6-11.3-28.4-16.7c1.9-3.5,3.5-7.2,4.8-11
		c11.4-33.3,1.5-73.9-33.2-133.2c22.7-6.4,43.9-12.5,63.3-18.2l1.5,6.4c16.1,69.1,31.8,135,47,196.2
		C1938.2,682.9,1935.4,682.9,1932.7,682.9z"/>
	<path class="st7" d="M1231.9,1139.1c-23.4,20.5-38.7,39.8-48.4,57.4c-80.8,24.1-148.4,50.6-203.4,75.8c-6.4-39.6-18-70.1-31-93.3
		c58.4-8.3,175.1-56.1,229.5-131.1c42.1,21.9,88.9,33.6,139.7,34.9c-1.5,0.6-2.4,1-2.4,1c0.6-0.3,1.3-0.7,1.9-1
		C1285.1,1098.8,1256.2,1117.7,1231.9,1139.1z"/>
	<path class="st7" d="M1087.7,2295l-15-20.2c-29.5-39.6-61.5-66.2-83.6-69.5c-1.7-0.3-3.4-0.4-5-0.4c-5.3,0-10.1,1.3-14.6,4.1
		l-21.8,13.4l-161.9-99.1c18.3,35.5,32.5,65.2,39.5,81c1.5,3.5,3.3,8.2,5.1,13.6c113.7,105.4,262.9,172.5,427.6,181
		c-1.8-24.4-0.2-49.3,1.2-71.5c0.6-10.2,1.3-20.1,1.4-27.8c0.2-10.8,0-21.3-0.3-31.7L1087.7,2295z"/>
	<path class="st8" d="M1766.6,2478c-136.5,180-362.6,309.6-562.4,313.4c-119.2,2-211.5-42.9-261.6-127.2
		c-56.3-94.6-142.2-129.5-198.1-115.1c-37.5,9.7-58.9,40.9-60.5,88c-1.3,41.3,35.1,96.4,97.6,147.4
		c112.3,91.7,304.9,165.5,482.1,123.5c252.9-59.8,484.4-231.6,610.3-438.7C1837.9,2474.6,1801.9,2477.8,1766.6,2478z"/>
	<path id="Fill-6_1_" class="st7" d="M1527.7,2127.5c-19.5-76.5-146.6-323.1-245.4-205.9
		c-50.8,60.3-8.5,167.5,5.8,233.4c10.6,48.9,14.8,95.2,14.1,145.1c-0.6,41.8-13.1,114.6,14.5,151.4c45.8,61.2,141.1,12.7,175.1-37.4
		C1545.7,2334.6,1549.6,2216.2,1527.7,2127.5"/>
	<path id="Fill-8_1_" class="st7" d="M446.6,1913.4c-20,24.6-26.7,59.2-18.8,97.5
		c20.2,97.7,193.9,287.1,311.5,315.3c9,2.2,17.1,3.3,24.2,3.3c18.3,0,25.2-7.2,28.7-12.6c14.3-21.9,6.2-69.6-5.2-95.6
		c-32.6-74.4-135.8-269.5-187.9-309.6c-26.3-20.2-54.5-30.9-81.8-30.9C488.9,1880.8,463.8,1892.4,446.6,1913.4"/>
	<path class="st9" d="M2264.4,1390.8c-50.4,46.4-212.3,195.2-280.2,251.6c-72.5,65.3-140.2,105.1-200.6,130.8
		c-18.8,299.5-23.3,582-23.3,663c0.8,0,1.6,0,2.5,0c256.4,0,563.5-166.9,640.2-211.4C2410.6,2012.7,2332.9,1653.4,2264.4,1390.8z"/>
	<path class="st7" d="M1555.3,2079.9c6.1,15.4,10.4,28.3,12.7,37.3c19.2,77.6,23,194.3-22,287c49.7-2.4,121.5-8.8,173.1-21.3
		c1.2-93.8,5-267.3,14.7-462.7C1675.1,1940.9,1599.7,1995.4,1555.3,2079.9z"/>
	<path class="st10" d="M1173.2,1274c-2.7-8.4-4.4-18.3-4-29.5c-234.3,74.1-346.1,167.1-346.1,167.1
		c-139.4-218.5-518.3-347.2-518.3-347.2l56.1,67.1c-99.2-61.7-214.2-64.4-214.2-64.4l20.8,44.5c120,36.2,339.1,129.5,590.3,365.1
		l53.4-40.4l76.1,66.3c61.3-36.2,190.2-106.7,349.8-163.8C1205.4,1324.6,1182,1301.7,1173.2,1274z"/>
	<path class="st7" d="M1352.9,1137.9l-15.2-18.3c-29.2,14-55.7,31-78.3,50.8c-38,33.5-54.6,65.8-46.5,91c8.3,25.9,42,46.3,84,50.7
		c31.6,3.3,79.6-7.3,130.4-18.6c3.7-0.8,7.5-1.7,11.2-2.5C1398.8,1194.3,1353.8,1139,1352.9,1137.9z"/>
	<path class="st9" d="M2251.2,1346.4c0,0-63.4-307.8-137.4-355.2c-116.4-74.5-272.5,103.6-272.5,103.6s-92.1-32.2-228.5-24.8
		c-107.9,5.9-232.7,33.8-232.7,33.8s218.9,262.7,144.4,653.9c0,0,183.2,77.7,432.3-147.2C2035.7,1545.3,2251.2,1346.4,2251.2,1346.4
		z"/>
	<path id="Fill-7_1_" class="st8" d="M2152.5,754.1c-90.7,0-187.4-14-277.3-6.5
		c56.3,92,205.8,170.2,310,183.7c93.6,12.1,292.4-54.9,292.4-175.9C2370.8,744.5,2259.6,754.1,2152.5,754.1"/>
	<path id="Fill-11_1_" class="st8" d="M703.7,1069.1c-1.9,0.4-2.4,1-2.4,1c0.2-0.1,1.4,2.2,5.8,5.1
		c8,5.4,40.8,20.7,129.6-3c-2.7-20.6-1.7-46.2,7.2-76.7C792,1031.6,733.5,1062.5,703.7,1069.1"/>
	<path class="st7" d="M796.4,1311c12.2-5.5,24-13.7,34.5-24.1c22.3-22.3,32.3-51.7,26.7-78.7c-3.4-16.8-12.6-29.6-24.5-34.3
		c-1.9-0.8-4.6-1.2-7.7-1.2c-21.4,0-60.4,19.2-86.2,50.3c-4.4,5.3-10,13-14.3,22C750.3,1265.7,774.4,1287.7,796.4,1311z"/>
	<path class="st9" d="M878.7,1157.5c9.5,11.5,16.4,26,19.8,42.3c8.4,40.7-5.9,84.3-38.1,116.5c-10.6,10.6-22.8,19.8-35.6,26.9
		c2.7,3.3,5.4,6.6,8,9.9c23.9-16,59.8-37.9,108-62C930.7,1208.7,895.1,1170.9,878.7,1157.5z"/>
	<path class="st11" d="M1608.4,1812.2C1608.3,1812.2,1608.3,1812.2,1608.4,1812.2c-59.9,0-96.1-14.5-100-16.2
		c-4.9-2.1-9.1-4.8-12.7-8.3c-0.1,0.2-0.2,0.4-0.2,0.4c-76.9-75.5-131.1-340.5-148.7-436.7c-7.8,1-15.4,1.9-22.7,2.4
		c-209.9,64.8-377.7,162.3-415.4,184.6l219,708.3l129.7-20.3c-2.2-20.9-5.5-41.5-10-62.5c-2.3-10.7-5.6-23.3-9-36.4
		c-18.4-70.2-43.6-166.5,12.1-232.6c32-37.9,66.2-45.9,89.2-45.9c83.3,0,153.9,101.8,194.2,183.1c52.7-88.7,129.1-131,186-151
		l16.1-5.7c1.5-27.9,3.1-56.5,4.8-84.9C1689.3,1807.3,1644.4,1812.2,1608.4,1812.2z"/>
	<path class="st10" d="M1202.9,1674.4c15.4,52.1,59,88.1,109.1,96.5l-113.6-153.4C1196,1636,1197.3,1655.3,1202.9,1674.4z"/>
	<path class="st10" d="M1349.1,1562.8c0,0-6.9,2.9-14.7,5.7l89.3,127.4l0.1-40.6c-10.3-28.5-19.8-59-28.4-89.5
		c-8.1-7.3-15-14-17.8-23.2c-2.5-8.3-0.4-17.4,5.3-23.6c-1.1-4.3-2.2-8.5-3.2-12.8c-26.2-9.2-55.5-10.7-84.2-2.2
		c-46,13.6-79.4,49.1-92.4,91.8c3.1-0.8,6-1.6,8.5-2.3c13.8-4.1,34.6-12,34.6-12c7-2.5,10.9,7.7,4,10.6c0,0-6.9,2.9-14.7,5.7
		l90,128.3l3.3-94.9l-37.1-50.1c-7.2,1.7-14.2,2.8-14.2,2.8c-7.2,1.7-9.6-9.4-2.4-11.1c0,0,22.2-4.7,35.1-8.6
		c13.8-4.1,34.6-12,34.6-12C1352,1549.7,1355.9,1559.8,1349.1,1562.8z"/>
	<path class="st10" d="M1340.2,1646.3l-5.6,126.4c12.8,0,25.8-1.8,38.7-5.6c15.3-4.5,29.2-11.5,41.5-20.4c-0.5-0.5-1-1-1.5-1.5
		L1340.2,1646.3z"/>
	<path class="st10" d="M1379.8,1788.9c32.3-9.5,59.3-28.5,79-52.9c-1.3-2.3-2.5-4.7-3.7-7.1c-18.9,24.5-45.4,43.6-77.3,53
		c-80.7,23.8-165.7-22.4-189.6-103.1c-23.8-80.7,22.4-165.7,103.1-189.6c28.5-8.4,57.6-8.1,84.3-0.5c-0.6-2.7-1.3-5.4-1.9-8.1
		c-26.9-6.8-55.9-6.8-84.5,1.6c-84.6,25-133,114.1-108,198.7C1206.1,1765.4,1295.2,1813.9,1379.8,1788.9z"/>
	<path class="st9" d="M1194.3,722.3c30.1-0.8,411.9-177.1,603.3-104.1c0,0,54-12.4-137.7-247.2c0,0-330.5-83.6-553.6,59.9
		c0,0-141.6,209-119.7,320.8C1085.2,668.6,1164.2,723.1,1194.3,722.3z"/>
	<path class="st7" d="M2326.3,1194.2c-13.8-53.9-39.7-134.2-71.4-223.4c-15.9,2.3-31.5,3.4-46.3,3.4c0,0,0,0,0,0
		c-10.2,0-19.9-0.6-28.9-1.7c-9.3-1.2-18.9-2.9-28.8-5c24.9,22.9,58.8,73.7,99.1,206.9c13,42.8,23.5,83.8,30.7,114
		c4.4-2.3,8.9-5,13.4-8.3C2328.2,1255.2,2340.2,1248.6,2326.3,1194.2z"/>
	<path class="st9" d="M2092.4,558.3c-10.6-23.9-20.8-46.2-30.3-66.2c-8.1-16.8-20.3-36.2-32-56c-37.5-7.3-64.7,15.7-76.8,29
		c5.2,22.5,16,69.1,30.5,129.2C2026.7,551.6,2073.1,554.6,2092.4,558.3z"/>
	<g class="st6">
		<path class="st1" d="M1950.6,453.9c0.6,2.5,1.5,6.3,2.6,11.1c12.2-13.3,39.3-36.2,76.8-29c-13.5-23-26.1-46.7-30.5-68
			c0,0-50.6-257.1-107.2-207.9c0,0,71.1,108.4,75.1,198C1967.5,358.2,1937.7,399.5,1950.6,453.9z"/>
		<path class="st1" d="M2092.4,558.3c-19.2-3.7-65.7-6.7-108.6,36c8.1,33.7,17.4,71.7,27.5,112c11.7,0.6,23.3,1.3,34.7,2
			c37.1,2.2,72.1,4.3,106.5,4.3c1.5,0,3.1,0,4.6,0C2134.9,657.2,2112.8,604.6,2092.4,558.3z"/>
	</g>
	<g class="st6">
		<path class="st4" d="M720.8,1499.2c-258.8-239.9-480.4-324.7-585.6-353.6l320.3,708.1c18.6-9.5,39.5-14.6,61.9-14.6
			c36.5,0,73.6,13.7,107.2,39.5c34.5,26.6,81.6,100.2,122,172.1l169.1,103.4L720.8,1499.2z"/>
		<path class="st4" d="M865.1,1538.5l-55.8-48.5l-39.1,29.5l192.6,647.2c10.1-3.2,21-4.2,32.3-2.5c28.6,4.2,56.1,25.1,78,47.2
			L865.1,1538.5z"/>
	</g>
	<path class="st10" d="M1436.2,1687.3l-1.9,42.4c4.9-5.2,9.2-10.7,13.2-16.5C1443.6,1704.9,1439.8,1696.2,1436.2,1687.3z"/>
	<path class="st7" d="M1839.6,769.3c-7.5-12.3-8.2-27.7-1.6-40.6c3.5-6.9,8.8-12.5,15.1-16.4c-51-31.9-106.3-55.4-165.2-70.2
		c-0.9,0-1.8,0-2.7,0c-141.5,0-326.9,67.2-416,99.5c-48,17.4-61.1,22-73.6,22.3l-1.8,0c-12.5,0-24.3-3.3-38-7.2
		c-15.9-4.5-33.9-9.6-54.1-9.6c-0.1,0-0.2,0-0.3,0c-75.1,49.8-138.6,113.7-186.6,189.8c-12.8,20.4-22.6,40-29.2,58.8
		c0,3.9-0.5,7.7-1.6,11.6c-6.3,21.5-8.3,41.6-5.9,59.6c0.5,3.6,0.4,7.2,0,10.7c0.5,2,1,4.1,1.6,6.1c8.9,29.2,29.3,47.3,44.1,53.8
		c25,11.1,184.1-44.1,230.3-128.1c2.6-4.7,7.1-8.2,12.3-9.6c5.3-1.4,10.8-0.6,15.5,2.3c108.5,66.7,230.5,36.2,336.3,2.4
		c10.5-3.3,21.6,2.4,25,12.9c1.8,5.6,0.9,11.4-1.9,16.1c5.5-0.1,11.1-0.1,16.6-0.1c17.5-2.2,35.3-3.8,52.8-4.8
		c14.3-0.8,28.8-1.2,43.1-1.2c80,0,141.8,12.2,174.8,20.6c37.3-37.4,123.2-112.4,214.9-116.3C1961.4,894.7,1881.1,837,1839.6,769.3z
		 M1003.7,961.6c-21.9,0-39.7-17.8-39.7-39.7c0-21.9,17.8-39.7,39.7-39.7c21.9,0,39.7,17.8,39.7,39.7
		C1043.4,943.8,1025.6,961.6,1003.7,961.6z M1219.8,943.9c-32.5,24.4-35.3,22-70.6,17.6c-35.3-4.4-44.8-33.6-13.2-57.3
		c17.6-13.2,44.1-22,83.8-26.4C1259.5,873.4,1255.1,917.5,1219.8,943.9z M1462.3,851.4c-21.9,0-39.7-17.8-39.7-39.7
		s17.8-39.7,39.7-39.7c21.9,0,39.7,17.8,39.7,39.7S1484.3,851.4,1462.3,851.4z"/>
</g>
</svg>
